<svg id="visual" viewBox="0 0 900 600" width="900" height="600" xmlns="http://www.w3.org/2000/svg" xmlns:xlink="http://www.w3.org/1999/xlink" version="1.1"><rect x="0" y="0" width="900" height="600" fill="#140021"></rect><path d="M0 285L129 285L129 248L257 248L257 373L386 373L386 326L514 326L514 342L643 342L643 373L771 373L771 371L900 371L900 318L900 601L900 601L771 601L771 601L643 601L643 601L514 601L514 601L386 601L386 601L257 601L257 601L129 601L129 601L0 601Z" fill="#9900ff"></path><path d="M0 414L129 414L129 434L257 434L257 427L386 427L386 419L514 419L514 372L643 372L643 385L771 385L771 355L900 355L900 419L900 601L900 601L771 601L771 601L643 601L643 601L514 601L514 601L386 601L386 601L257 601L257 601L129 601L129 601L0 601Z" fill="#7700c6"></path><path d="M0 507L129 507L129 537L257 537L257 496L386 496L386 444L514 444L514 471L643 471L643 465L771 465L771 462L900 462L900 524L900 601L900 601L771 601L771 601L643 601L643 601L514 601L514 601L386 601L386 601L257 601L257 601L129 601L129 601L0 601Z" fill="#560090"></path></svg>